<svg xmlns="http://www.w3.org/2000/svg" viewBox="0 0 100 100">
  <rect width="100" height="100" fill="#231F20"/>
  <g fill="#DEFF4C">
    <rect x="44" y="4" width="12" height="38" rx="1.5" transform="rotate(0 50 50)"/>
    <rect x="44" y="4" width="12" height="38" rx="1.5" transform="rotate(40 50 50)"/>
    <rect x="44" y="4" width="12" height="38" rx="1.5" transform="rotate(80 50 50)"/>
    <rect x="44" y="4" width="12" height="38" rx="1.5" transform="rotate(120 50 50)"/>
    <rect x="44" y="4" width="12" height="38" rx="1.5" transform="rotate(160 50 50)"/>
    <rect x="44" y="4" width="12" height="38" rx="1.5" transform="rotate(200 50 50)"/>
    <rect x="44" y="4" width="12" height="38" rx="1.5" transform="rotate(240 50 50)"/>
    <rect x="44" y="4" width="12" height="38" rx="1.5" transform="rotate(280 50 50)"/>
    <rect x="44" y="4" width="12" height="38" rx="1.5" transform="rotate(320 50 50)"/>
  </g>
</svg>